<svg width="173" height="41" viewBox="0 0 173 41" fill="none" xmlns="http://www.w3.org/2000/svg"> <path d="M39.5281 20.4351C39.8979 18.6367 41.3771 17.6867 43.159 17.6867C44.8063 17.6867 46.3192 18.7725 46.6218 20.4351H39.5281ZM52.3035 23.3532C52.3035 17.4152 48.8406 13.6828 42.8564 13.6828C37.2419 13.6828 33.3085 17.1777 33.3085 22.9799C33.3085 28.9857 37.5781 32.2431 43.2934 32.2431C45.277 32.2431 47.2269 31.7681 48.807 30.7841C50.3871 29.8001 51.5974 28.3071 52.0681 26.2712H46.1847C45.5123 27.4249 44.571 27.866 43.2598 27.866C40.7384 27.866 39.4272 26.5087 39.4272 23.9978H52.3035V23.3532ZM61.2245 14.2596H55.1058V31.6663H61.2245V22.6406C61.2245 20.469 61.9305 18.6028 64.4183 18.6028C67.4441 18.6028 67.1751 21.5209 67.1751 23.1835V31.6663H73.2939V20.9101C73.2939 16.6348 71.4448 13.6828 66.8053 13.6828C64.4183 13.6828 62.7038 14.3954 61.2917 16.4991H61.2245V14.2596ZM83.4515 14.2596H77.3328V31.6663H83.4515V14.2596ZM80.3921 4.11426C78.5094 4.11426 76.9629 5.67509 76.9629 7.57522C76.9629 9.47536 78.5094 11.0362 80.3921 11.0362C82.2748 11.0362 83.8213 9.47536 83.8213 7.57522C83.8213 5.67509 82.2748 4.11426 80.3921 4.11426ZM96.5883 13.6828C91.0411 13.6828 86.1999 17.042 86.1999 22.9799C86.1999 28.9178 91.0747 32.2431 96.5883 32.2431C102.135 32.2431 106.977 28.8839 106.977 22.9799C106.977 17.042 102.135 13.6828 96.5883 13.6828ZM96.5883 19.0439C99.0761 19.0439 100.522 20.8423 100.522 22.9799C100.522 25.1854 99.0761 26.882 96.5883 26.882C94.1005 26.882 92.6548 25.1854 92.6548 22.9799C92.6548 20.8423 94.1005 19.0439 96.5883 19.0439ZM115.856 14.2596H109.737V31.6663H115.856V24.6425C115.856 21.6566 116.697 19.3832 120.092 19.3832C121.033 19.3832 121.84 19.485 122.681 19.9601V14.0221H121.504C119.117 14.0221 117.1 14.9722 115.923 17.1098H115.856V14.2596ZM125.388 24.405C123.202 24.405 121.454 26.1694 121.454 28.3749C121.454 30.5465 123.202 32.3449 125.388 32.3449C127.573 32.3449 129.321 30.5465 129.321 28.3749C129.321 26.1694 127.573 24.405 125.388 24.405ZM142.156 19.0439C144.644 19.0439 146.09 20.8423 146.09 22.9799C146.09 25.1854 144.644 26.882 142.156 26.882C139.668 26.882 138.223 25.1854 138.223 22.9799C138.223 20.8423 139.668 19.0439 142.156 19.0439ZM152.007 14.2596H145.888V15.9562C144.61 14.4293 142.526 13.6828 140.543 13.6828C135.432 13.6828 131.902 17.9581 131.902 22.946C131.902 27.9338 135.5 32.2431 140.61 32.2431C142.627 32.2431 144.745 31.4627 145.821 29.7322H145.888V31.6663H152.007V14.2596ZM164.535 26.5427L172.603 14.2596H155.39V19.3832H162.417L154.314 31.6663H171.796V26.5427H164.535Z" fill="white"/> <path d="M5.63427 39.71L5.8273 40.149L6.23098 39.8906C11.7097 36.3809 23.1611 29.0861 25.2485 27.9108C26.535 27.1865 26.9788 26.3032 26.9655 25.5035C26.9591 25.1217 26.8476 24.7883 26.7129 24.5368C26.6454 24.4109 26.5693 24.3005 26.492 24.211C26.428 24.1368 26.3444 24.055 26.2462 23.9988L18.0618 18.4248L14.2219 21.2828L14.6001 21.6181C15.5748 22.4822 17.9445 24.265 19.0757 25.0199C19.528 25.3216 19.6144 25.5424 19.6242 25.6248C19.6306 25.6793 19.6107 25.7427 19.5108 25.7996C17.4146 26.9926 14.162 28.9065 11.3406 30.7294C9.93069 31.6404 8.62202 32.5328 7.6175 33.3037C7.1157 33.6888 6.68327 34.0486 6.35008 34.3689C6.02832 34.6783 5.7595 34.9876 5.63427 35.2724C4.84999 37.0563 5.30564 38.9625 5.63427 39.71Z" fill="#9E9E9E"/> <path d="M21.3315 5.94983L21.1385 5.51074L20.7347 5.76932C15.2561 9.27896 3.80467 16.5737 1.71727 17.749C0.430787 18.4733 -0.0130953 19.3566 0.000292788 20.1563C0.00668582 20.5382 0.1181 20.8716 0.252873 21.123C0.320391 21.2489 0.396433 21.3594 0.473719 21.4489C0.537753 21.523 0.621385 21.6048 0.719508 21.661L8.90393 27.235L12.7438 24.377L12.3657 24.0418C11.391 23.1776 9.02125 21.3948 7.89003 20.64C7.43781 20.3382 7.35141 20.1174 7.34157 20.035C7.33509 19.9805 7.35506 19.9171 7.45497 19.8602C9.55111 18.6672 12.8038 16.7534 15.6251 14.9304C17.035 14.0194 18.3437 13.127 19.3482 12.3562C19.85 11.971 20.2825 11.6113 20.6156 11.2909C20.9374 10.9815 21.2063 10.6723 21.3315 10.3874C22.1158 8.60334 21.6601 6.69737 21.3315 5.94983Z" fill="#4FA6A9"/> </svg>